<svg width="500" height="500" viewBox="0 0 500 500" fill="none" xmlns="http://www.w3.org/2000/svg">
<g clip-path="url(#clip0_1_2)">
<rect width="500" height="500" fill="black"/>
<path d="M132.111 314.468C126.951 313.868 122.871 312.068 119.871 309.068C116.991 306.068 115.551 302.288 115.551 297.728C115.551 294.248 116.391 290.648 118.071 286.928L159.291 193.148C161.571 187.868 165.531 185.228 171.171 185.228C176.691 185.228 180.591 187.868 182.871 193.148L224.091 286.928C225.771 290.888 226.611 294.488 226.611 297.728C226.611 302.288 225.111 306.068 222.111 309.068C219.231 312.068 215.151 313.868 209.871 314.468L194.751 280.268H147.411L132.111 314.468ZM187.371 259.748L167.571 210.428L165.411 211.328L169.731 222.488L154.611 259.748H187.371ZM256.196 312.848C252.956 312.848 250.136 311.768 247.736 309.608C245.336 307.448 244.136 304.868 244.136 301.868V197.828C244.136 194.828 245.276 192.248 247.556 190.088C249.956 187.928 252.836 186.848 256.196 186.848H304.616C316.136 186.848 325.316 190.088 332.156 196.568C339.116 202.928 342.596 211.508 342.596 222.308C342.596 227.468 341.216 232.388 338.456 237.068C335.696 241.628 332.036 245.168 327.476 247.688V248.228C333.716 250.388 338.636 253.928 342.236 258.848C345.956 263.768 347.816 269.408 347.816 275.768C347.816 282.968 346.136 289.388 342.776 295.028C339.416 300.668 334.736 305.048 328.736 308.168C322.736 311.288 315.896 312.848 308.216 312.848H256.196ZM304.256 239.768C308.216 239.768 311.576 238.148 314.336 234.908C317.216 231.668 318.656 227.768 318.656 223.208C318.656 218.288 317.336 214.388 314.696 211.508C312.176 208.628 308.696 207.188 304.256 207.188H267.536V239.768H304.256ZM307.856 292.508C312.776 292.508 316.676 291.068 319.556 288.188C322.436 285.188 323.876 281.108 323.876 275.948C323.876 270.908 322.436 267.008 319.556 264.248C316.796 261.368 312.896 259.928 307.856 259.928H267.536V292.508H307.856ZM365.249 203.228C365.249 197.708 367.409 193.328 371.729 190.088C376.049 186.728 381.929 185.048 389.369 185.048L427.169 280.088L423.029 291.428L424.829 292.148L465.329 185.228C472.649 185.228 478.469 186.908 482.789 190.268C487.229 193.508 489.449 197.888 489.449 203.408V314.468C473.729 314.468 465.869 308.588 465.869 296.828V239.228L471.989 222.668L470.009 221.948L437.069 307.988C436.229 309.908 434.909 311.468 433.109 312.668C431.429 313.868 429.509 314.468 427.349 314.468C425.189 314.468 423.209 313.868 421.409 312.668C419.729 311.468 418.469 309.848 417.629 307.808L384.689 221.768L382.709 222.488L388.649 239.048V296.828C388.649 308.588 380.849 314.468 365.249 314.468V203.228Z" fill="white"/>
<path d="M282.184 362.472C279.811 362.472 277.691 362.019 275.824 361.112C273.984 360.206 272.544 358.939 271.504 357.312C270.464 355.686 269.944 353.832 269.944 351.752V344.392C269.944 342.312 270.451 340.472 271.464 338.872C272.504 337.246 273.931 335.992 275.744 335.112C277.558 334.206 279.638 333.752 281.984 333.752C284.331 333.752 286.411 334.112 288.224 334.832C290.064 335.526 291.491 336.512 292.504 337.792C293.518 339.046 294.024 340.486 294.024 342.112C294.024 343.099 293.691 343.886 293.024 344.472C292.384 345.032 291.518 345.312 290.424 345.312C289.891 345.312 289.304 345.232 288.664 345.072C288.718 344.432 288.744 343.806 288.744 343.192C288.744 341.779 288.118 340.632 286.864 339.752C285.611 338.872 283.984 338.432 281.984 338.432C280.011 338.432 278.398 338.992 277.144 340.112C275.918 341.206 275.304 342.632 275.304 344.392V351.752C275.304 353.539 275.944 354.992 277.224 356.112C278.504 357.232 280.158 357.792 282.184 357.792C284.184 357.792 285.811 357.352 287.064 356.472C288.318 355.592 288.944 354.459 288.944 353.072C288.944 352.432 288.918 351.819 288.864 351.232C289.531 351.099 290.091 351.032 290.544 351.032C291.664 351.032 292.558 351.326 293.224 351.912C293.891 352.499 294.224 353.299 294.224 354.312C294.224 355.886 293.718 357.299 292.704 358.552C291.691 359.779 290.264 360.739 288.424 361.432C286.611 362.126 284.531 362.472 282.184 362.472ZM309.126 362.472C306.939 362.472 304.939 362.046 303.126 361.192C301.313 360.312 299.873 359.126 298.806 357.632C297.766 356.139 297.246 354.512 297.246 352.752V343.432C297.246 341.672 297.766 340.059 298.806 338.592C299.873 337.099 301.313 335.926 303.126 335.072C304.939 334.192 306.939 333.752 309.126 333.752C311.313 333.752 313.313 334.192 315.126 335.072C316.966 335.926 318.406 337.099 319.446 338.592C320.513 340.059 321.046 341.672 321.046 343.432V352.752C321.046 354.512 320.513 356.139 319.446 357.632C318.406 359.126 316.966 360.312 315.126 361.192C313.313 362.046 311.313 362.472 309.126 362.472ZM309.126 357.792C311.126 357.792 312.726 357.326 313.926 356.392C315.126 355.432 315.726 354.192 315.726 352.672V343.552C315.726 342.006 315.126 340.766 313.926 339.832C312.726 338.872 311.126 338.392 309.126 338.392C307.153 338.392 305.566 338.872 304.366 339.832C303.166 340.766 302.566 342.006 302.566 343.552V352.672C302.566 354.192 303.166 355.432 304.366 356.392C305.566 357.326 307.153 357.792 309.126 357.792ZM327.602 362.112C326.855 362.112 326.215 361.886 325.682 361.432C325.175 360.952 324.922 360.366 324.922 359.672V336.552C324.922 335.859 325.175 335.286 325.682 334.832C326.189 334.352 326.829 334.112 327.602 334.112H336.482C338.855 334.112 340.949 334.566 342.762 335.472C344.602 336.379 346.015 337.659 347.002 339.312C348.015 340.939 348.522 342.806 348.522 344.912V351.232C348.522 353.339 348.015 355.219 347.002 356.872C345.989 358.526 344.562 359.819 342.722 360.752C340.909 361.659 338.829 362.112 336.482 362.112H327.602ZM336.082 357.512C338.402 357.512 340.162 356.992 341.362 355.952C342.562 354.886 343.162 353.326 343.162 351.272V344.832C343.162 342.832 342.562 341.312 341.362 340.272C340.162 339.232 338.402 338.712 336.082 338.712H330.282V357.512H336.082ZM353.339 337.752C353.339 336.499 353.806 335.526 354.739 334.832C355.673 334.112 356.993 333.752 358.699 333.752V358.472C358.699 359.752 358.233 360.739 357.299 361.432C356.366 362.126 355.046 362.472 353.339 362.472V337.752ZM364.18 337.992C364.18 336.686 364.62 335.659 365.5 334.912C366.38 334.139 367.566 333.752 369.06 333.752L382.58 354.872L382.98 354.552L381.34 351.832V333.752C383.073 333.752 384.38 334.086 385.26 334.752C386.166 335.419 386.62 336.406 386.62 337.712V358.832C386.62 359.819 386.193 360.672 385.34 361.392C384.513 362.112 383.553 362.472 382.46 362.472L368.22 340.192L367.82 340.552L369.46 343.272V358.512C369.46 359.819 369.006 360.806 368.1 361.472C367.22 362.139 365.913 362.472 364.18 362.472V337.992ZM402.614 362.472C400.241 362.472 398.121 362.019 396.254 361.112C394.414 360.206 392.974 358.939 391.934 357.312C390.894 355.686 390.374 353.832 390.374 351.752V344.392C390.374 342.312 390.881 340.472 391.894 338.872C392.934 337.246 394.361 335.992 396.174 335.112C397.987 334.206 400.067 333.752 402.414 333.752C404.761 333.752 406.841 334.112 408.654 334.832C410.494 335.526 411.921 336.499 412.934 337.752C413.947 339.006 414.454 340.446 414.454 342.072C414.454 343.059 414.121 343.832 413.454 344.392C412.814 344.952 411.947 345.232 410.854 345.232C410.321 345.232 409.734 345.152 409.094 344.992C409.147 344.352 409.174 343.726 409.174 343.112C409.174 341.699 408.547 340.552 407.294 339.672C406.041 338.792 404.414 338.352 402.414 338.352C400.441 338.352 398.827 338.912 397.574 340.032C396.347 341.152 395.734 342.606 395.734 344.392V351.752C395.734 353.539 396.374 355.006 397.654 356.152C398.934 357.299 400.587 357.872 402.614 357.872C404.587 357.872 406.187 357.419 407.414 356.512C408.667 355.579 409.294 354.379 409.294 352.912V351.672H405.854C404.841 351.672 404.014 351.286 403.374 350.512C402.734 349.712 402.414 348.686 402.414 347.432H412.134C412.881 347.432 413.481 347.659 413.934 348.112C414.387 348.566 414.614 349.166 414.614 349.912V353.032C414.614 354.872 414.107 356.512 413.094 357.952C412.081 359.366 410.654 360.472 408.814 361.272C407.001 362.072 404.934 362.472 402.614 362.472Z" fill="white"/>
<path d="M247.273 89.2426L247.273 89.2407L244.755 53.0545C244.749 52.9992 244.749 52.9482 244.749 52.918L244.749 52.9142L244.749 52.9119M247.273 89.2426L169.796 52.9119C169.819 46.8066 174.762 41.8702 180.854 41.8702H234.189C240.282 41.8702 245.221 46.8066 245.249 52.9119H244.749M247.273 89.2426C247.347 90.2394 248.042 91.0737 249.003 91.3257L249.116 90.8936M247.273 89.2426L249.116 90.8936M244.749 52.9119C244.721 47.0813 240.004 42.3702 234.189 42.3702H180.854C175.038 42.3702 170.318 47.0828 170.296 52.9137M244.749 52.9119L170.296 52.9137M170.296 52.9137C170.296 52.9523 170.294 52.9858 170.292 53.002L170.292 53.0035L170.291 53.0171V53.029L170.29 53.0464L169.388 65.9866L168.454 79.3995L168.142 83.8793L167.767 89.2405C167.767 89.2407 167.767 89.2408 167.767 89.2409C167.698 90.235 167.004 91.0738 166.037 91.3259L170.296 52.9137ZM249.116 90.8936L249.003 91.3258C260.428 94.3218 271.361 98.519 281.667 103.791M249.116 90.8936L281.667 103.791M281.667 103.791L281.668 103.792L281.782 103.852C282.497 104.223 282.705 105.152 282.218 105.793L256.96 139.067C256.593 139.549 255.946 139.719 255.395 139.48C251.068 137.587 246.604 135.95 242.03 134.572L242.029 134.572C236.172 132.813 230.125 131.492 223.932 130.641L223.932 130.641C220.217 130.133 216.454 129.796 212.642 129.634C210.946 129.562 209.238 129.525 207.519 129.525C204.227 129.525 200.963 129.661 197.735 129.921C162.559 132.764 131.666 150.804 111.585 177.487C96.4001 197.661 87.3965 222.777 87.3965 250C87.3965 316.539 141.177 370.475 207.519 370.475C224.541 370.475 240.729 366.925 255.399 360.523M281.667 103.791L282.204 394.189L259.331 364.06L256.96 360.937M255.399 360.523C255.399 360.524 255.399 360.524 255.398 360.524L255.2 360.065L255.399 360.523ZM255.399 360.523C255.951 360.286 256.594 360.456 256.96 360.937M256.96 360.937L256.96 360.936L257.348 360.641L256.96 360.937ZM282.602 393.887L282.204 394.189C282.696 394.839 282.485 395.781 281.766 396.158M282.602 393.887L244.749 447.086M282.602 393.887C283.281 394.783 282.991 396.083 281.995 396.603M282.602 393.887L281.995 396.603M281.766 396.158C281.644 396.22 281.522 396.284 281.402 396.347L281.4 396.348C281.346 396.377 281.291 396.405 281.236 396.433C281.134 396.485 281.032 396.536 280.927 396.588L280.922 396.59C275.738 399.207 270.395 401.557 264.913 403.615C259.729 405.562 254.423 407.254 249.003 408.674C248.041 408.926 247.347 409.765 247.273 410.757L247.273 410.759L244.756 446.933L245.253 446.988M281.766 396.158C281.767 396.158 281.768 396.157 281.768 396.157L281.995 396.603M281.766 396.158C281.766 396.158 281.765 396.159 281.764 396.159L281.995 396.603M245.253 446.988L244.754 446.954L244.755 446.946C244.749 447.003 244.749 447.056 244.749 447.086M245.253 446.988L247.772 410.794L169.794 447.034C169.795 447.051 169.796 447.069 169.796 447.088C169.819 453.188 174.762 458.13 180.854 458.13H234.189C240.282 458.13 245.221 453.188 245.249 447.088M245.253 446.988C245.249 447.02 245.249 447.051 245.249 447.088M244.749 447.086L245.249 447.088M244.749 447.086L166.037 91.3259C164.055 91.8439 162.088 92.402 160.133 92.9952L160.132 92.9953C147.731 96.7511 135.957 101.95 124.993 108.39L124.992 108.391C124.135 108.892 123.054 108.795 122.302 108.143L122.3 108.142L94.9865 84.3245L94.9733 84.313L94.9615 84.3011C94.9612 84.3009 94.9605 84.3002 94.9593 84.299L94.9447 84.2858C94.932 84.2743 94.911 84.2551 94.8873 84.2303C90.7609 80.1326 84.1057 80.1476 79.9944 84.2691C79.9944 84.2692 79.9944 84.2692 79.9944 84.2692L57.0093 107.322L42.2802 122.096L42.28 122.096C38.1665 126.219 38.1549 132.907 42.2483 137.042L42.2547 137.049L42.2608 137.055L42.2627 137.057C42.2715 137.067 42.309 137.106 42.3433 137.149L62.077 159.909L62.0772 159.91L66.0794 164.532C66.7343 165.287 66.8264 166.371 66.327 167.226C58.8927 179.959 53.1232 193.776 49.3122 208.393C49.0621 209.354 48.2322 210.06 47.2333 210.128C47.2329 210.128 47.2326 210.128 47.2323 210.128L11.1613 212.653C11.0957 212.661 11.0375 212.661 11.0163 212.661M245.249 447.088H244.749C244.721 452.914 240.004 457.63 234.189 457.63H180.854C175.038 457.63 170.318 452.912 170.296 447.086C170.296 447.072 170.296 447.059 170.295 447.046C170.294 447.024 170.293 447.007 170.292 446.997L170.291 446.988V446.983V446.971L170.29 446.954L167.767 410.759C167.698 409.765 167.004 408.926 166.037 408.674C151.466 404.852 137.684 399.069 124.993 391.61L124.992 391.609C124.135 391.108 123.054 391.205 122.302 391.857L122.3 391.858L94.9865 415.676L94.9733 415.687L94.9615 415.699C94.9612 415.699 94.9605 415.7 94.9593 415.701L94.9447 415.714C94.932 415.726 94.911 415.745 94.8872 415.77C90.7608 419.867 84.1056 419.852 79.9944 415.731L57.0092 392.678L42.2802 377.904L41.9424 378.241L42.28 377.904C38.1665 373.781 38.1549 367.093 42.2483 362.958L42.2547 362.951L42.2608 362.945L42.2626 362.943C42.2713 362.934 42.3089 362.894 42.3433 362.851L66.0779 335.469C66.0782 335.469 66.0784 335.469 66.0787 335.468C66.736 334.716 66.8247 333.627 66.3279 332.77L66.3271 332.769C58.8927 320.041 53.1231 306.224 49.3121 291.607C49.0619 290.645 48.2315 289.94 47.2323 289.872L11.1611 287.347C11.0955 287.339 11.0375 287.339 11.0163 287.339M11.0163 287.339C11.0164 287.339 11.0166 287.339 11.0167 287.339L11.0145 287.839V287.339C11.0151 287.339 11.0157 287.339 11.0163 287.339ZM11.0163 287.339C5.20368 287.314 0.5 282.585 0.5 276.749V223.251C0.5 217.415 5.20367 212.686 11.0163 212.661M11.0163 212.661C11.0164 212.661 11.0166 212.661 11.0167 212.661L11.0145 212.161V212.661C11.0151 212.661 11.0157 212.661 11.0163 212.661ZM281.995 396.603C281.942 396.629 281.89 396.657 281.837 396.684C281.769 396.719 281.702 396.754 281.634 396.79C281.472 396.876 281.311 396.956 281.147 397.037L281.995 396.603ZM207.519 130.025C204.241 130.025 200.99 130.16 197.775 130.419L223.864 131.136C220.165 130.631 216.417 130.295 212.621 130.134C210.932 130.062 209.231 130.025 207.519 130.025Z" fill="white" stroke="white"/>
</g>
<defs>
<clipPath id="clip0_1_2">
<rect width="500" height="500" fill="white"/>
</clipPath>
</defs>
</svg>
