<?xml version="1.0" standalone="no"?>
<!DOCTYPE svg PUBLIC "-//W3C//DTD SVG 20010904//EN"
 "http://www.w3.org/TR/2001/REC-SVG-20010904/DTD/svg10.dtd">
<svg version="1.0" xmlns="http://www.w3.org/2000/svg"
 width="673.000000pt" height="661.000000pt" viewBox="0 0 673.000000 661.000000"
 preserveAspectRatio="xMidYMid meet">

<g transform="translate(0.000000,661.000000) scale(0.100000,-0.100000)"
fill="#000000" stroke="none">
<path d="M10 5164 l0 -1437 23 33 c46 68 48 68 337 90 146 11 270 22 276 24 7
3 29 56 49 118 44 131 109 285 159 378 20 36 36 72 36 81 0 8 -78 106 -174
216 -95 111 -176 208 -180 218 -12 31 -6 100 10 125 27 41 537 550 566 566 37
19 108 18 138 -3 14 -9 109 -90 212 -180 103 -90 194 -163 203 -163 8 0 52 20
98 44 100 54 271 125 389 161 48 14 89 29 92 33 2 4 11 122 21 262 18 288 28
326 95 362 33 17 59 18 437 16 388 -3 403 -4 430 -24 52 -38 60 -70 78 -334 9
-135 18 -254 20 -266 4 -17 30 -29 143 -66 178 -58 322 -125 322 -148 0 -17
-318 -446 -343 -463 -7 -6 -65 9 -148 37 -170 58 -265 76 -446 83 -285 12
-529 -39 -772 -162 -449 -225 -757 -623 -862 -1113 -26 -126 -37 -386 -20
-515 28 -208 79 -368 177 -557 79 -152 170 -273 297 -397 304 -295 692 -453
1113 -453 203 0 406 37 574 106 33 13 66 24 73 24 18 0 357 -447 357 -470 0
-23 -145 -90 -322 -148 -113 -37 -139 -49 -143 -66 -2 -12 -11 -131 -20 -266
-18 -264 -26 -296 -78 -334 -28 -20 -40 -21 -440 -21 l-412 0 -32 24 c-52 39
-60 75 -78 347 -9 137 -18 254 -20 261 -2 6 -39 23 -82 37 -142 45 -239 84
-362 145 -66 34 -128 61 -136 61 -9 0 -93 -68 -188 -151 -226 -200 -240 -209
-294 -209 -24 0 -56 6 -71 14 -29 16 -539 525 -566 566 -22 33 -21 108 3 145
11 17 91 113 180 214 89 102 161 192 161 200 0 9 -16 45 -36 81 -50 92 -115
247 -158 377 -21 62 -41 115 -45 117 -4 3 -101 12 -216 20 -335 25 -332 24
-367 54 -17 14 -37 40 -44 57 -11 25 -13 -209 -14 -1442 l0 -1473 3355 0 3355
0 0 3300 0 3300 -3355 0 -3355 0 0 -1436z m3090 -1284 c21 -11 50 -34 63 -52
31 -43 470 -1131 465 -1155 -3 -16 -15 -18 -118 -18 l-114 0 -189 473 c-104
260 -192 470 -195 467 -4 -3 -47 -110 -97 -238 l-91 -232 102 -3 c65 -2 106
-7 112 -15 6 -7 24 -47 41 -91 30 -73 31 -80 16 -102 -15 -23 -19 -24 -191
-26 l-176 -3 -46 -115 -47 -115 -115 0 c-111 0 -115 1 -118 22 -3 20 392 1021
439 1115 50 99 163 137 259 88z m1761 -27 c46 -24 58 -36 84 -87 30 -59 30
-62 30 -215 0 -155 0 -156 -30 -211 l-31 -56 28 -43 c35 -56 48 -120 48 -241
0 -196 -41 -292 -142 -335 -32 -13 -98 -15 -426 -15 -388 0 -389 0 -423 23
-61 41 -59 22 -56 605 l2 534 37 34 38 34 393 0 393 0 55 -27z m784 9 c27 -16
47 -62 181 -397 83 -209 155 -380 160 -382 8 -2 217 505 284 689 12 34 34 68
51 83 29 24 36 25 155 25 121 0 124 -1 154 -27 24 -22 33 -41 40 -88 13 -80
13 -1056 0 -1089 -9 -25 -12 -26 -104 -26 -65 0 -97 4 -103 13 -4 6 -10 216
-13 465 l-5 453 -62 -153 c-210 -519 -233 -573 -263 -603 -30 -30 -32 -30
-135 -30 -103 0 -105 0 -135 31 -29 28 -92 174 -283 654 l-42 104 -5 -454 c-3
-250 -9 -461 -13 -467 -6 -9 -38 -13 -103 -13 -92 0 -95 1 -104 26 -13 33 -13
1009 0 1089 7 47 16 66 40 88 30 26 33 27 153 27 100 0 127 -3 152 -18z
m-1605 -1762 l0 -29 -87 -3 -88 -3 0 -90 0 -90 88 -3 87 -3 0 -29 0 -30 -95 0
c-88 0 -98 2 -120 25 -23 23 -25 31 -25 130 0 99 2 107 25 130 22 23 32 25
120 25 l95 0 0 -30z m320 20 c26 -14 40 -63 40 -145 0 -82 -14 -131 -40 -145
-10 -6 -57 -10 -105 -10 -78 0 -88 2 -110 25 -23 23 -25 31 -25 130 0 99 2
107 25 130 22 23 32 25 110 25 48 0 95 -4 105 -10z m351 -19 c28 -29 29 -33
29 -126 0 -93 -1 -97 -29 -126 -28 -28 -33 -29 -123 -29 -60 0 -98 4 -106 12
-17 17 -17 269 0 286 8 8 46 12 106 12 90 0 95 -1 123 -29z m169 -126 l0 -155
-30 0 -30 0 0 155 0 155 30 0 30 0 0 -155z m230 37 l65 -113 3 116 3 115 29 0
30 0 0 -138 c0 -159 -6 -175 -60 -170 -33 3 -39 9 -100 116 l-65 113 -3 -116
-3 -116 -27 3 -27 3 -3 133 c-3 157 3 175 56 170 36 -3 39 -7 102 -116z m470
88 l0 -30 -99 0 c-114 0 -111 2 -111 -95 0 -94 1 -95 81 -95 l69 0 0 35 0 35
-51 0 c-49 0 -50 1 -47 28 3 27 4 27 81 30 l77 3 0 -84 c0 -51 -5 -88 -12 -95
-8 -8 -47 -12 -110 -12 -84 0 -101 3 -117 19 -26 26 -34 73 -29 165 3 62 7 79
27 100 23 25 29 26 133 26 l108 0 0 -30z"/>
<path d="M4170 3270 l0 -390 279 0 c334 0 311 -10 311 136 0 142 5 138 -222
142 -219 3 -218 3 -218 111 0 110 -4 108 216 113 229 4 224 1 224 140 0 81 -2
91 -25 113 l-24 25 -271 0 -270 0 0 -390z"/>
<path d="M4184 2057 c-3 -8 -4 -49 -2 -93 l3 -79 69 -3 c49 -2 72 1 77 10 10
15 12 139 3 162 -8 21 -142 23 -150 3z"/>
<path d="M4530 1975 l0 -95 69 0 c80 0 81 1 81 95 0 94 -1 95 -81 95 l-69 0 0
-95z"/>
</g>
</svg>
